Patient4_TMGait_0pt2_03_right_24_GRF.mot
version=1
nRows=58
nColumns=19
inDegrees=no
endheader
time	F1x	F1y	F1z	M1x	M1y	M1z	F2x	F2y	F2z	M2x	M2y	M2z	EC1x	EC1y	EC1z	EC2x	EC2y	EC2z
51.24	-0.81139	798.3855	52.1437	-278.5335	-54.198	835.4083	-11.1929	-4.6134	2.2567	-1.2878	1.5223	-4.9516	-0.0592	0.0182	-0.0073	-0.0462	0.0165	0.9585
51.2602	-1.0681	823.7347	53.6774	-287.4491	-55.1711	862.5294	-7.5681	-2.5446	1.4371	-0.6581	1.1552	-2.6785	-0.0592	0.0182	-0.0073	-0.0462	0.0165	0.9585
51.2804	-0.80397	850.4008	55.2055	-296.774	-55.945	890.201	-4.4794	-0.747	0.72823	-0.10903	0.8566	-0.70405	-0.0592	0.0182	-0.0073	-0.0462	0.0165	0.9585
51.3006	0.1674	874.2627	56.52	-305.0816	-56.2901	913.97	-2.1175	0.66142	0.17598	0.32209	0.63934	0.84573	-0.0592	0.0182	-0.0073	-0.0462	0.0165	0.9585
51.3209	1.9497	890.9822	57.3354	-310.897	-55.9001	929.2958	-0.48627	1.6591	-0.21528	0.62746	0.49807	1.9541	-0.0592	0.0182	-0.0073	-0.0462	0.0165	0.9585
51.3411	4.5564	897.1843	57.3444	-313.0937	-54.4588	932.7507	0.51266	2.2756	-0.46492	0.81414	0.41964	2.6508	-0.0592	0.0182	-0.0073	-0.0462	0.0165	0.9585
51.3613	7.9082	891.3155	56.338	-311.1693	-51.772	922.8881	1.0205	2.5523	-0.60447	0.8924	0.39034	2.9734	-0.0592	0.0182	-0.0073	-0.0462	0.0165	0.9585
51.3815	11.8473	874.0178	54.3186	-305.3578	-47.8881	900.6014	1.1824	2.5181	-0.66731	0.86835	0.39644	2.9461	-0.0592	0.0182	-0.0073	-0.0462	0.0165	0.9585
51.4017	16.1718	847.9842	51.5164	-296.5747	-43.1065	868.9358	1.1265	2.1782	-0.67946	0.7393	0.4212	2.5698	-0.0592	0.0182	-0.0073	-0.0462	0.0165	0.9585
51.4219	20.6681	817.2867	48.3283	-286.1882	-37.9055	832.3554	0.95468	1.5176	-0.65841	0.49585	0.44615	1.823	-0.0592	0.0182	-0.0073	-0.0462	0.0165	0.9585
51.4421	25.1158	786.3699	45.2193	-275.686	-32.8346	795.6758	0.74476	0.51368	-0.61543	0.12649	0.45355	0.67627	-0.0592	0.0182	-0.0073	-0.0462	0.0165	0.9585
51.4624	29.2952	759.118	42.6018	-266.3687	-28.3869	763.0883	0.55824	-0.84466	-0.55598	-0.37504	0.42555	-0.88424	-0.0592	0.0182	-0.0073	-0.0462	0.0165	0.9585
51.4826	33.0109	738.2709	40.7343	-259.1594	-24.8871	737.5327	0.4484	-2.5177	-0.47641	-0.99562	0.33937	-2.8166	-0.0592	0.0182	-0.0073	-0.0462	0.0165	0.9585
51.5028	36.1446	725.1766	39.682	-254.5215	-22.4336	720.4368	0.46724	-4.3693	-0.36667	-1.6839	0.16716	-4.9681	-0.0592	0.0182	-0.0073	-0.0462	0.0165	0.9585
51.523	38.7023	719.7827	39.3718	-252.452	-20.9429	711.7101	0.66765	-6.1057	-0.21319	-2.328	-0.12404	-7.0006	-0.0592	0.0182	-0.0073	-0.0462	0.0165	0.9585
51.5432	40.8382	720.8068	39.6889	-252.5318	-20.2469	709.9345	1.1029	-7.2105	-0.0049085	-2.7313	-0.56328	-8.3143	-0.0592	0.0182	-0.0073	-0.0462	0.0165	0.9585
51.5634	42.8131	726.0516	40.5461	-254.0254	-20.1737	712.7299	1.8198	-6.8782	0.26029	-2.5883	-1.1639	-7.9729	-0.0592	0.0182	-0.0073	-0.0462	0.0165	0.9585
51.5836	44.8609	732.8349	41.881	-256.0174	-20.5871	717.265	2.8394	-3.9813	0.56938	-1.4715	-1.908	-4.6609	-0.0592	0.0182	-0.0073	-0.0462	0.0165	0.9585
51.6039	47.0488	738.3437	43.6121	-257.5276	-21.3894	720.681	4.1309	2.9087	0.88302	1.1601	-2.7251	3.3047	-0.0592	0.0182	-0.0073	-0.0462	0.0165	0.9585
51.6241	49.2371	739.8805	45.5916	-257.6017	-22.4871	720.3603	5.5745	15.4038	1.1236	5.9149	-3.4673	17.8336	-0.0592	0.0182	-0.0073	-0.0462	0.0165	0.9585
51.6443	51.1086	735.031	47.596	-255.3794	-23.7749	714.0718	6.9121	35.0385	1.1674	13.3688	-3.8808	40.7575	-0.0592	0.0182	-0.0073	-0.0462	0.0165	0.9585
51.6645	52.2209	721.8145	49.3399	-250.1548	-25.133	700.0813	7.6945	62.799	0.83598	23.8869	-3.5752	73.2767	-0.0592	0.0182	-0.0073	-0.0462	0.0165	0.9585
51.6847	52.0986	698.9839	50.5	-241.4843	-26.419	677.3871	7.2455	98.3966	-0.10421	37.3476	-2.0148	115.1185	-0.0592	0.0182	-0.0073	-0.0462	0.0165	0.9585
51.7049	50.3749	666.4569	50.7893	-229.3399	-27.4906	646.0773	4.9139	139.5466	-1.9215	52.8682	1.3509	163.6895	-0.0592	0.0182	-0.0073	-0.0462	0.0165	0.9585
51.7251	46.9466	625.7403	50.0673	-214.2576	-28.2589	607.6866	0.86761	182.4325	-4.8565	68.9816	6.7146	214.5539	-0.0592	0.0182	-0.0073	-0.0462	0.0165	0.9585
51.7454	42.0745	579.9631	48.4245	-197.3465	-28.7325	565.1825	-4.2854	224.3902	-8.8059	84.669	13.7069	264.5455	-0.0592	0.0182	-0.0073	-0.0462	0.0165	0.9585
51.7656	36.3266	533.0402	46.1528	-180.0019	-28.995	522.1471	-10.0434	265.1797	-13.4456	99.8424	21.7557	313.3294	-0.0592	0.0182	-0.0073	-0.0462	0.0165	0.9585
51.7858	30.4121	488.4752	43.5478	-163.4963	-29.0664	481.6655	-16.0821	305.4261	-18.3247	114.7561	30.2059	361.6013	-0.0592	0.0182	-0.0073	-0.0462	0.0165	0.9585
51.806	24.9784	448.486	40.7956	-148.6696	-28.8678	445.5626	-22.0854	345.3272	-22.9415	129.5058	38.3388	409.5268	-0.0592	0.0182	-0.0073	-0.0462	0.0165	0.9585
51.8262	20.4584	413.6748	38.0131	-135.8017	-28.3207	414.1429	-27.62	384.2578	-26.9292	143.8601	45.5396	456.2713	-0.0592	0.0182	-0.0073	-0.0462	0.0165	0.9585
51.8464	17.0309	383.2544	35.2678	-124.6808	-27.3888	386.4392	-32.255	420.8565	-30.1922	157.2873	51.4985	500.1491	-0.0592	0.0182	-0.0073	-0.0462	0.0165	0.9585
51.8666	14.6545	355.6619	32.5687	-114.8062	-26.0667	360.8297	-35.7456	453.534	-32.8426	169.1602	56.2127	539.2388	-0.0592	0.0182	-0.0073	-0.0462	0.0165	0.9585
51.8869	13.1263	329.2265	29.89	-105.6106	-24.3828	335.6887	-38.0583	481.4024	-35.039	179.1203	59.8274	572.4708	-0.0592	0.0182	-0.0073	-0.0462	0.0165	0.9585
51.9071	12.1458	302.5781	27.1859	-96.6059	-22.3928	309.7579	-39.2896	504.7998	-36.9244	187.2822	62.5408	600.2204	-0.0592	0.0182	-0.0073	-0.0462	0.0165	0.9585
51.9273	11.418	274.8559	24.3941	-87.4616	-20.1462	282.3087	-39.6191	525.0543	-38.6331	194.1476	64.5938	624.0243	-0.0592	0.0182	-0.0073	-0.0462	0.0165	0.9585
51.9475	10.7147	245.8051	21.4683	-78.0428	-17.6877	253.209	-39.2761	543.8903	-40.3128	200.3846	66.2699	645.8876	-0.0592	0.0182	-0.0073	-0.0462	0.0165	0.9585
51.9677	9.8878	215.8231	18.4219	-68.4269	-15.0923	222.9587	-38.4906	562.8597	-42.0762	206.6187	67.8146	667.6127	-0.0592	0.0182	-0.0073	-0.0462	0.0165	0.9585
51.9879	8.8653	185.9292	15.3614	-58.8942	-12.5019	192.6618	-37.4489	582.9168	-43.908	213.275	69.3093	690.2997	-0.0592	0.0182	-0.0073	-0.0462	0.0165	0.9585
52.0081	7.6574	157.5601	12.4835	-49.8643	-10.1203	163.828	-36.2785	604.1985	-45.6359	220.4904	70.6258	714.0997	-0.0592	0.0182	-0.0073	-0.0462	0.0165	0.9585
52.0284	6.3599	132.173	10.0142	-41.7737	-8.1525	137.9692	-35.0554	626.0279	-46.9894	228.0943	71.4972	738.2292	-0.0592	0.0182	-0.0073	-0.0462	0.0165	0.9585
52.0486	5.0974	110.7946	8.1307	-34.9366	-6.7438	116.1444	-33.828	647.0836	-47.729	235.6484	71.672	761.1712	-0.0592	0.0182	-0.0073	-0.0462	0.0165	0.9585
52.0688	3.9309	93.6821	6.8971	-29.438	-5.9429	98.6193	-32.6308	665.8045	-47.7585	242.5834	71.0421	781.1463	-0.0592	0.0182	-0.0073	-0.0462	0.0165	0.9585
52.089	2.8247	80.2967	6.2329	-25.1204	-5.6821	84.8359	-31.4848	680.9894	-47.1722	248.4256	69.6982	796.7993	-0.0592	0.0182	-0.0073	-0.0462	0.0165	0.9585
52.1092	1.6953	69.5801	5.9487	-21.6654	-5.7954	73.7096	-30.3856	692.3139	-46.2123	253.0068	67.8885	807.7759	-0.0592	0.0182	-0.0073	-0.0462	0.0165	0.9585
52.1294	0.47431	60.3454	5.8261	-18.7102	-6.0817	64.0321	-29.2803	700.4692	-45.1773	256.5319	65.9182	814.865	-0.0592	0.0182	-0.0073	-0.0462	0.0165	0.9585
52.1496	-0.84067	51.6384	5.6803	-15.9558	-6.3542	54.843	-28.0834	706.834	-44.3394	259.4676	64.062	819.6371	-0.0592	0.0182	-0.0073	-0.0462	0.0165	0.9585
52.1699	-2.1561	42.9594	5.3916	-13.2401	-6.4641	45.6561	-26.7551	713.0371	-43.9089	262.38	62.5507	823.9683	-0.0592	0.0182	-0.0073	-0.0462	0.0165	0.9585
52.1901	-3.2802	34.2593	4.9021	-10.5407	-6.2962	36.4485	-25.3442	720.659	-44.0204	265.8222	61.5684	829.7034	-0.0592	0.0182	-0.0073	-0.0462	0.0165	0.9585
52.2103	-3.9752	25.7977	4.201	-7.9317	-5.7694	27.5036	-23.933	731.0366	-44.7139	270.2622	61.2084	838.4093	-0.0592	0.0182	-0.0073	-0.0462	0.0165	0.9585
52.2305	-4.056	17.9929	3.3239	-5.5357	-4.8659	19.2612	-22.5562	745.0699	-45.9085	276.0144	61.4099	851.1302	-0.0592	0.0182	-0.0073	-0.0462	0.0165	0.9585
52.2507	-3.5535	11.327	2.3734	-3.496	-3.7057	12.2229	-21.1686	762.9812	-47.4149	283.152	61.9571	868.1027	-0.0592	0.0182	-0.0073	-0.0462	0.0165	0.9585
52.2709	-2.7577	6.1735	1.501	-1.922	-2.5384	6.7825	-19.6788	784.1181	-48.9855	291.4302	62.5454	888.5523	-0.0592	0.0182	-0.0073	-0.0462	0.0165	0.9585
52.2911	-1.9197	2.5562	0.79688	-0.8189	-1.5352	2.9726	-17.9944	806.9353	-50.3751	300.275	62.8679	910.6969	-0.0592	0.0182	-0.0073	-0.0462	0.0165	0.9585
52.3114	-1.1832	0.24951	0.28752	-0.11615	-0.76765	0.55043	-16.0413	829.1866	-51.3997	308.8517	62.6901	931.9824	-0.0592	0.0182	-0.0073	-0.0462	0.0165	0.9585
52.3316	-0.61316	-1.0843	-0.04204	0.29162	-0.2414	-0.85167	-13.7598	848.2257	-51.947	316.1771	61.8645	949.4233	-0.0592	0.0182	-0.0073	-0.0462	0.0165	0.9585
52.3518	-0.22291	-1.8072	-0.22874	0.51731	0.078147	-1.6239	-11.085	861.4831	-51.9472	321.3007	60.2912	960.1336	-0.0592	0.0182	-0.0073	-0.0462	0.0165	0.9585
52.372	0.010436	-2.253	-0.31531	0.66544	0.24368	-2.1325	-7.9385	867.0179	-51.3671	323.5099	57.9091	961.9449	-0.0592	0.0182	-0.0073	-0.0462	0.0165	0.9585
52.3922	0.13228	-2.7052	-0.34322	0.82513	0.31567	-2.6949	-4.2641	863.9514	-50.2231	322.4872	54.7244	953.9027	-0.0592	0.0182	-0.0073	-0.0462	0.0165	0.9585
